<?xml version="1.0" encoding="utf-8"?>
<!-- Generator: Adobe Illustrator 27.7.0, SVG Export Plug-In . SVG Version: 6.00 Build 0)  -->
<svg version="1.1" id="Layer_1" xmlns="http://www.w3.org/2000/svg" xmlns:xlink="http://www.w3.org/1999/xlink" x="0px" y="0px"
	 viewBox="0 0 891.57 304.34" style="enable-background:new 0 0 891.57 304.34;" xml:space="preserve">
<style type="text/css">
	.st0{fill:#FF385C;}
</style>
<g>
	<g>
		<g>
			<g>
				<path d="M747.15,157.46c-1.96-1.05-3.87-2.12-5.27-3.77c-1.26-1.5-2.75-2.73-4.46-3.4c-4.28-1.69-7.23-4.95-10.28-8.09
					c-1.68-1.74-3.35-3.38-5.41-4.7c-2.2-1.4-4.14-3.19-5.58-5.46c-2.04-3.22-4.75-5.83-7.65-8.28c-1.09-0.92-2.04-1.99-2.81-3.27
					c4.49,2.73,8.29,6.31,12.23,9.92c0.45-1.24-0.06-2.24-0.28-3.17c-0.5-2.06-0.79-4.11-0.63-6.22c0.33-4.33-0.36-8.48-1.89-12.55
					c-1.22-3.25-1.19-6.79-1.99-10.14c-1.25-5.29-3.75-9.49-9.53-10.86c-3.59-0.85-6.63-2.94-10.29-5.01c3.3,5.13,6,9.94,7.56,15.89
					c-2.33-1.86-3.15-4.07-4.18-6.07c-2.35-4.52-5.4-8.38-9.22-11.78c-1.82-1.62-3.63-3.43-4.75-5.78c-0.88-1.85-2.58-3.03-4.53-3.7
					c-6.39-2.18-12.26-5.23-17.3-9.82c-2.24-2.05-4.74-3.8-7.06-5.76c-2.56-2.17-5.13-4.34-6.74-7.39c-1.07-2.03-2.76-3.38-4.78-4.4
					c-2.77-1.39-5.19-3.59-8.62-3.41c-0.65,0.03-1.37-0.48-1.99-0.85c-3.7-2.13-7.73-3.1-11.93-3.72c-2.72-0.4-4.71,0.59-6.37,2.52
					c-1.36,1.59-2.59,3.28-3.9,4.92c-1.94,2.44-4.83,3.01-7.47,1.33c-1.03-0.66-2.07-0.97-3.25-0.96c-2.1,0.02-4.2,0.18-6.29,0.06
					c-3.53-0.2-5.74,1.73-7.3,4.5c-1.2,2.15-2.73,3.95-4.55,5.56c-1.58,1.4-3.05,2.97-3.57,5.05c-1.25,4.9-4.08,8.98-6.93,12.96
					c-2.54,3.55-4.18,7.46-5.9,11.38c-0.84,1.92-1.65,3.83-2.81,5.6c-3.21,4.93-5.06,10.33-5.03,16.25c0.01,2.57-1.1,4.89-1.29,7.4
					c-0.27,3.46,0.01,6.91,0.03,10.37c0,0.57,0.38,1.21-0.36,1.92c-0.64-1.28-0.94-2.52-1.11-3.85c-0.55-4.27-0.85-8.53,0.15-12.78
					c0.07-0.3,0.08-0.63,0.06-0.94c-0.08-1.01,0.54-2.32-0.41-2.97c-1.18-0.81-2.4,0.1-3.48,0.69c-2.51,1.39-4.06,3.62-4.95,6.26
					c-0.94,2.77-1.9,5.54-2.53,8.41c-0.92,4.2-3.2,6.15-7.56,6.71c-0.41,0.05-0.89,0.03-1.22,0.23c-2.18,1.3-4.54,1.42-7.32,1.06
					c0.75,3.91,1.96,7.51,2.48,11.68c-1.89-1.8-2.03-3.88-2.65-5.7c-1-2.95-1.97-5.92-2.23-9.1c-0.23-2.8,0.68-5.39,1.03-8.08
					c0.33-2.51-0.32-4.59-1.85-6.41c-1.08-1.28-2.13-2.59-3.22-3.86c-1.94-2.24-4.15-3.99-7.25-4.61
					c-6.15-1.22-12.2-3.08-18.46-3.54c-3.73-0.28-7.48-0.72-11.24-0.64c-2.71,0.05-3.28,0.57-3.67,3.16
					c-0.35,2.27-0.66,4.55-1.06,6.81c-0.23,1.27-0.24,2.52,0.11,3.74c0.29,1,0.5,1.95-0.05,3.55c-1.1-2.31-1.9-4.06-1.62-6.23
					c0.29-2.28,0.33-4.58,0.7-6.86c0.82-5.11-0.89-9.7-3.39-14.04c-0.45-0.78-1.23-1.49-2.03-1.93c-2.64-1.46-5.38-2.75-7.99-4.55
					c-1.03,1.45-0.88,2.71-0.48,4.04c0.99,3.3,1.91,6.61,2.37,10.05c0.34,2.52,0.56,5.1,0.07,7.51c-0.5,2.52-0.17,4.84,0.56,7.08
					c1.28,3.92,0.94,8.05,2.05,11.97c-1.96-1.53-2.28-3.73-2.46-5.89c-0.14-1.69-0.39-3.31-0.94-4.91
					c-1.05-3.03-1.06-6.17-0.76-9.31c0.44-4.69-0.65-9.17-1.89-13.6c-0.82-2.97-0.91-6-1.3-9c-0.44-3.38-1.46-6.28-4.61-8.09
					c-1.37-0.79-2.58-1.92-3.36-3.27c-2.9-4.98-7.46-7.32-12.92-7.73c-3.47-0.26-6.8-1.17-10.24-1.44
					c-4.47-0.35-8.45,1.97-9.75,6.22c-0.79,2.61-2.11,4.82-3.83,6.78c-4.05,4.62-5.3,10.06-5.17,15.99c0.05,2.4,0.01,4.81,0.01,7.22
					c-1.13,0.11-1.04-0.66-1.09-1.19c-0.35-3.85-0.83-7.69-0.39-11.59c0.4-3.49-0.58-4.1-4.16-3.83c-4.73,0.36-9.19,1.93-13.82,2.65
					c-1.15,0.18-2.25,0.27-3.43,0.07c-2.69-0.44-4.79,0.49-6.6,2.64c-1.99,2.36-2.65,5.16-3.46,7.98
					c-1.29,4.51-3.52,8.75-3.89,13.53c-0.21,2.71-0.66,5.4-0.76,8.11c-0.19,4.81-0.97,9.59-0.86,14.42
					c0.02,0.89-0.37,1.78-0.73,3.37c-0.92-4.31-0.81-7.91-0.6-11.49c0.3-5.22,0.87-10.43,1.17-15.65c0.14-2.35,1.03-4.48,1.55-6.72
					c0.49-2.08-0.48-3.87-2.52-4.05c-3.11-0.28-6.25-0.02-9.39-0.21c-1.82-0.11-3.45,2.01-3.7,3.99c-0.6,4.76-0.45,9.42,1.93,13.75
					c0.63,1.15,0.77,2.41,0.91,3.63c0.57,4.89,0.76,9.8,0.7,14.72c-0.01,0.45,0.13,1.02-0.62,1.57c-0.64-2.14-1.05-4.19-1.18-6.32
					c-0.19-3.12-0.47-6.24-0.66-9.36c-0.08-1.29-0.35-2.5-1.04-3.58c-2.38-3.73-2.5-7.9-2.36-12.12c0.01-0.41,0.17-0.82,0.19-1.24
					c0.22-4.55-1.01-6.02-5.56-6.66c-0.72-0.1-1.47-0.06-2.2-0.11c-2.93-0.2-5.5-1.24-7.57-3.37c-0.66-0.68-1.24-1.44-1.96-2.04
					c-2.18-1.82-4.56-2.94-7.5-1.98c-1.69,0.55-3.45,0.85-5.16,1.31c-2.33,0.62-4.75,0.57-7.14-0.05c-2.81-0.74-5.57-0.53-8.33,0.41
					c-2.38,0.82-4.9,1.06-7.4,1.28c-2.09,0.18-3.97,0.99-5.3,2.45c-2.61,2.84-2.66,2.8-0.64,5.85c2.69,4.05,4.78,8.28,5.45,13.21
					c0.38,2.78,1.44,5.46,1.91,8.26c0.57,3.33,0.36,6.7,0.57,10.04c0.2,3.12,0.41,6.25,0.37,9.38c-0.04,2.71-0.23,5.45-0.71,8.11
					c-1.1,6.02-1.47,12.06-0.76,18.12c0.27,2.28,0.63,4.54,0.57,7.18c-1.95-1.44-2.41-3.49-2.8-5.35c-0.85-4-0.81-8.07-0.67-12.17
					c0.19-5.85,1.67-11.58,1.35-17.46c-0.29-5.44-0.42-10.88-0.77-16.31c-0.1-1.54-0.71-3.05-1.12-4.56
					c-1.29-4.72-1.65-9.73-4.5-13.94c-2.68-3.96-4.52-8.47-8.44-11.62c-1.99-1.6-4.19-2.76-6.3-4.1c-1.45-0.92-2.72-1.89-3.51-3.48
					c-1.04-2.1-2.65-3.8-4.48-5.21c-4.37-3.36-7.05-7.93-9.5-12.72c-1.38-2.71-3.02-5.26-5.64-7.02c-3.7-2.5-8.06-2.57-11.8-0.1
					c-1.41,0.93-2.54,2.16-3.66,3.42c-4,4.53-8.4,3.82-11.2-1.5c-1.39-2.65-1.48-5.45-1.74-8.23c-0.42-4.39-1.94-8.33-4.19-12.03
					c-1.5-2.47-2.29-5.11-2.73-7.95c-0.4-2.57-0.52-5.19-1.7-7.63c-1.76-3.63-4.49-5.85-8.32-7.08c-5.14-1.64-10.1-1.04-15.06,0.56
					c-3.18,1.02-6.31,1.18-9.54,0.07c-2.5-0.87-4.79-0.1-6.52,1.9c-1.99,2.31-3.6,4.9-4.87,7.67c-1.02,2.23-2.32,4.25-4.14,5.87
					c-5.43,4.79-8.04,11.16-9.89,17.87c-1.22,4.42-1.88,9-2.85,13.49c-0.93,4.3-2.17,8.4-4.73,12.17c-3,4.41-3.97,9.64-4.23,14.94
					c-0.28,5.68-1.23,11.22-3.04,16.64c-0.75,2.26-1.1,4.72-1.23,7.11c-0.22,3.99-0.53,7.88-2.1,11.64c-0.79,1.9-0.18,4.14-0.64,6.3
					c3.86-4.77,6.92-10.23,13-13.06c0.1,1.1-0.54,1.57-1.02,2c-4.07,3.69-7.53,7.85-10.16,12.71c-1.93,3.57-5.19,5.99-8,8.8
					c-3.36,3.36-5.87,7.33-8.15,11.46c-0.71,1.28-1.36,2.61-3.13,3.6c0.32-2.44,1.31-4.37,2.42-6.09c1.31-2.03,2.46-4.14,3.66-6.22
					c1.51-2.61,3.56-4.67,5.97-6.37c1.23-0.87,1.79-1.82,2.04-3.29c0.93-5.57,1.66-11.17,3.25-16.61c0.26-0.89,0.33-1.86,0.37-2.79
					c0.21-5.15,1.09-10.16,2.48-15.13c1.3-4.65,1.45-9.5,1.95-14.28c0.41-3.87,1.29-7.61,3.51-10.93c0.93-1.39,1.75-2.87,2.49-4.37
					c1.07-2.17,1.82-4.38,1.79-6.91c-0.06-5.12,1.91-9.83,3.51-14.56c0.97-2.86,1.57-5.82,2.85-8.62c1.51-3.3,3.08-6.4,5.94-8.72
					c3.93-3.19,6.13-7.64,8.53-11.94c1.56-2.8,3.38-5.32,6.62-6.38c1.12-0.37,2.25-0.64,3.39-0.24c4.4,1.55,8.59,0.49,12.91-0.62
					c5.9-1.52,11.78-1.36,17.42,1.5c5.26,2.68,7.35,7.31,7.94,12.73c0.46,4.27,1.85,8.12,3.96,11.77c2.42,4.19,3.43,8.75,3.49,13.52
					c0.03,2.12,0.84,3.9,1.9,5.56c1.25,1.94,2.97,2.08,4.79,0.54c0.8-0.67,1.44-1.52,2.16-2.28c3.55-3.78,7.94-5.49,13.04-4.72
					c3.67,0.55,6.4,2.95,8.78,5.68c1.94,2.23,3.36,4.83,4.6,7.47c1.84,3.9,4.49,7.06,7.84,9.66c1.69,1.31,3.09,2.85,4.11,4.7
					c0.94,1.72,2.26,3.02,3.93,3.96c3.58,2.02,6.79,4.54,9.74,7.33c0.94-0.31,1.28-1.14,1.84-1.75c1.63-1.76,3.69-2.9,6-3.12
					c3.34-0.32,6.6-0.78,9.85-1.69c3.36-0.94,6.89-0.6,10.33-0.34c2.69,0.2,5.23-0.14,7.75-0.9c4.17-1.26,7.85-0.77,10.89,2.62
					c3.07,3.43,6.96,4.98,11.53,4.62c2.66-0.21,3.9,1.64,5.51,3.42c2.63-1.7,5.38-2.71,8.72-1.84c2.93,0.76,6.32-0.6,9.06,2.37
					c0.81-3.98,2.09-7.25,4.02-10.29c1.81-2.84,4.22-4.32,7.62-3.87c3.76,0.5,7.27-0.72,10.82-1.54c3.71-0.86,7.38-1.48,11.12-0.41
					c0.94,0.27,1.41-0.08,1.67-0.87c0.74-2.26,2.21-4,3.84-5.67c1.25-1.29,2.01-2.93,2.58-4.64c0.3-0.89,0.58-1.8,1.01-2.62
					c3.47-6.48,7.4-7.61,14.05-6.66c3.41,0.49,6.74,1.34,10.18,1.74c4.79,0.56,8.68,3.14,11.5,7.01c1.5,2.05,3.13,3.93,4.96,5.64
					c2.16,2.03,3.46,4.44,3.64,7.38c0.06,0.93,0.36,1.16,1.22,1.4c3.14,0.89,5.92,2.74,8.49,4.51c3.16,2.18,5.05,5.79,6.1,9.63
					c0.16,0.6,0.23,1.22,0.36,1.95c2.13-0.19,4.15-1.33,6.18-0.53c1.91,0.75,3.95,0.46,5.84,0.97c2.17,0.59,4.36,0.61,6.55,0.75
					c5.04,0.33,9.81,1.76,14.57,3.29c0.2,0.06,0.41,0.13,0.61,0.11c3.58-0.34,5.85,1.77,7.91,4.24c1.68,2.01,3.28,4.08,4.99,6.06
					c1.34,1.56,1.62,3.29,1.34,5.28c-0.31,2.28-1.17,4.45-1.17,6.78c0,3.11,1.38,4.35,4.25,3.22c2.27-0.9,4.51-1.57,6.93-1.8
					c1.7-0.16,2.36-1.53,2.77-3.03c0.74-2.73,1.58-5.43,2.28-8.16c0.69-2.69,1.87-5.13,3.64-7.23c1.72-2.04,3.72-3.7,6.65-3.63
					c0.96,0.02,1.75-0.07,1.99-1.41c0.69-3.72,2.05-7.2,3.83-10.58c1.94-3.68,3.93-7.37,5.29-11.34c1.07-3.12,3.05-5.77,4.97-8.35
					c2.85-3.83,4.92-7.98,6.6-12.41c1.17-3.07,3.03-5.74,5.9-7.56c1.25-0.79,2.21-1.82,2.97-3.16c1.82-3.24,4.45-5.24,8.44-4.8
					c0.82,0.09,1.71,0.06,2.51-0.14c2.94-0.74,5.59,0.09,8.21,1.28c1.96,0.89,3.63,0.54,4.88-1.24c1.46-2.07,3.51-3.54,5.19-5.39
					c2.44-2.69,5.66-2.35,8.81-1.96c3.22,0.39,6.37,1.09,9.24,2.75c0.71,0.41,1.55,0.76,2.36,0.83c7.48,0.68,12.59,5.02,17.01,10.64
					c3.59,4.56,8.09,8.2,12.9,11.4c2.71,1.8,5.46,3.49,7.92,5.65c1.61,1.41,3.65,2,5.63,2.71c3.64,1.29,6.84,3.09,8.56,6.85
					c1.56,3.4,4.81,4.77,8,6.1c2.04,0.85,3.99,1.84,5.86,3.02c0.88,0.55,1.84,1.12,2.83,1.32c8.01,1.61,11.84,7.02,13.14,14.56
					c0.64,3.73,1.29,7.44,2.78,10.91c1.37,3.19,1.44,6.59,1.44,9.87c0,4.27,1.44,8.24,1.81,12.41c0.08,0.88,0.7,1.44,1.43,1.96
					c3.5,2.49,6.84,5.14,9.5,8.6c1.49,1.94,3.83,2.9,5.96,4.02c3.33,1.77,5.72,4.55,8.09,7.34
					C747.05,155.71,747.57,156.32,747.15,157.46z"/>
			</g>
		</g>
	</g>
	<g>
		<path class="st0" d="M101.17,266.54c1.66-4.23,3.32-8.31,4.68-12.99c2.87-9.07,6.35-17.22,10.88-25.38
			c0.3-0.76,0.3-1.51,0.15-2.57c-3.17,3.78-6.65,8.01-9.82,11.94c-3.78,4.38-7.71,8.16-11.03,12.39
			c-5.44,6.65-10.43,13.9-14.5,21.46c-1.81,5.29-1.66,7.25-6.19,8.16c-4.08,0.3-8.01,1.36-11.79,1.06
			c-7.55-0.3-14.66-6.35-16.62-14.5c-1.66-5.29-3.17-10.42-4.53-15.41c-0.91,2.12-2.42,4.53-3.48,7.25
			c-2.42,6.2-5.14,12.54-7.71,18.89c-1.36,2.72-2.87,5.29-3.32,8.46c-0.45,3.02-1.96,3.02-3.63,2.42c-3.02-0.6-5.74-1.36-9.07-1.96
			c-3.78-0.45-4.68-1.96-5.29-6.2c-0.91-6.95,1.66-12.99,4.83-18.74c3.02-5.59,5.59-11.48,8.46-16.92
			c4.38-7.86,8.61-15.71,12.99-23.87c5.29-9.52,11.18-18.58,16.02-28.71c2.12-5.14,5.59-8.31,8.46-12.99
			c4.53,1.06,8.76,1.81,12.54,4.23c2.72,1.81,3.47,5.14,2.12,8.31c-3.78,17.07-2.12,37.92-1.06,54.85c0.15,1.51,1.21,2.42,1.66,3.93
			c4.08-5.44,8.31-11.03,12.69-15.87c4.08-4.53,8.31-8.16,12.39-12.39c5.44-5.74,11.48-10.88,16.32-16.92
			c9.37-8.01,21-25.99,28.25-33.39c7.1,1.66,14.66,3.17,22.06,4.68c-0.91,2.42-1.36,5.14-2.72,7.4c-0.91,2.27-3.93,3.78-4.99,6.04
			c-2.57,5.14-4.99,10.43-7.4,16.02c-1.06,2.72-1.51,5.29-2.72,7.71c-7.1,14.05-7.86,21-14.81,42.31
			c-2.72,6.35-3.63,13.75-5.59,20.85c-0.45,2.27,1.66,9.97,1.21,12.09c-7.4,5.44-19.04,10.43-26.89-1.51
			c-2.72-6.35-3.17-12.99-2.57-19.94V266.54z"/>
		<path class="st0" d="M179.43,282.25c-1.81,0.91-3.63,1.51-5.14,1.66c-2.57,0.15-5.14,0.15-7.55-0.15
			c-1.96-0.15-3.93-0.75-5.74-1.66c-4.83-2.87-9.52-5.29-14.05-8.76c-1.81-1.06-3.78-3.63-4.23-5.89
			c-2.72-10.88,0.45-20.55,5.89-29.92c8.61-14.96,23.12-22.66,36.87-30.37c3.32-1.81,6.35-1.66,9.52-0.15
			c3.02,1.06,5.89,1.51,9.07,2.72c5.29,1.51,10.73,2.87,16.02,5.29c3.17,0.91,5.44,3.32,5.59,6.8c0,0.45,0.3,0.75,0.45,0.91
			c4.08,4.83,0.45,8.76-1.06,13.3c-3.02,8.01-6.2,16.02-8.61,24.48c-0.91,3.17-0.3,6.19,0,9.67c0.3,2.72,1.96,2.42,3.93,2.27
			c10.73-0.75,20.85-11.18,33.09-23.72c3.32-2.42,11.94,3.17,12.24,7.4c0,1.81-1.51,3.93-2.57,5.59
			c-2.87,5.74-8.01,9.07-12.09,13.45c-0.91,0.3-1.21,0.6-1.66,1.66c-14.51,17.38-33.69,11.63-49.26,1.66
			c-2.27-1.51-4.23-4.68-6.04-7.25C189.25,275,184.27,278.93,179.43,282.25z M199.23,224.68c-4.38,2.57-8.92,4.68-12.39,8.01
			c-5.74,6.04-10.58,12.39-15.41,18.74c-16.02,21,7.25,4.53,14.5-1.81c3.48-2.87,6.95-5.44,8.92-8.76
			c3.47-5.14,5.74-10.73,8.91-16.62C202.4,224.38,200.28,224.23,199.23,224.68z"/>
		<path class="st0" d="M327.95,213.44c5.59,7.97-0.15,8.13,0.76,13.23c0.15,4.14-0.91,6.06-4.38,6.54
			c-5.29,0.64-10.42,0.64-14.05-3.99c-1.36-1.75-2.72-1.59-4.23-0.48c-14.81,10.2-31.73,31.73-27.65,51.98
			c0.91,5.1,0.6,5.9-3.93,6.22c-1.96,0-3.93,1.28-5.89,0.96c-3.02-0.48-6.04-1.28-8.46-2.71c-2.27-1.12-3.93-3.19-5.89-4.94
			c-1.36-1.28-1.66-3.03-2.27-4.78c-3.63-9.09-3.02-22.32-0.15-31.09c1.81-6.54,4.53-12.6,7.55-18.97
			c2.27-4.94,4.99-9.89,7.71-14.67c0.3-0.64,0.6-1.12,1.06-1.44c16.17-9.25,20.25,3.03,24.93,8.93
			c4.83-3.67,14.35-13.55,21.61-12.28C319.64,206.91,324.63,208.66,327.95,213.44z"/>
		<path class="st0" d="M384.61,270.65c-1.21,3.26-3.78,5.93-9.22,5.93c-8.31,0-14.35-5.19-15.26-12.6
			c-0.91-6.82-0.45-16.75-1.06-23.13c-7.4,9.19-15.11,30.98-15.11,41.36c0,4.45-6.35,5.19-10.42,3.26c-2.27-0.89-4.68-1.78-7.1-2.22
			c-2.72-0.59-6.65-3.56-5.89-6.23c1.21-7.56,4.38-13.49,6.5-20.46c4.38-12.9,10.42-25.05,18.13-35.88
			c3.78-4.89,8.46-9.04,13.15-12.9c2.27-2.08,5.14-2.37,8.31-1.48c4.38,1.63,8.76,3.11,13.3,4.3c3.48,0.89,4.99,3.56,5.14,6.97
			c0.15,2.97-0.3,6.37-0.6,9.19c-0.3,2.52-0.6,5.19-1.06,7.86c1.96-2.37,4.08-5.19,6.35-7.41c3.93-4.3,7.86-8.45,12.39-11.71
			c6.04-5.04,13.14-5.78,20.7-2.08c0.6,0.44,1.51,0.74,2.27,0.89c6.5,1.78,10.88,4.89,10.12,11.27
			c-4.68,17.64-7.71,28.02-10.58,42.1c-1.06,5.04-0.15,10.67-0.3,15.86c0,1.04-0.3,2.22-1.21,2.82c-4.08,1.33-8.31,2.22-12.69,1.04
			c-15.87-4.3-14.05-29.06-9.22-40.18c1.21-4,2.42-8.01,3.93-12.16c-0.6-0.15-0.75-0.15-0.91-0.15
			C398.82,238.33,391.41,251.67,384.61,270.65z"/>
		<path class="st0" d="M472.85,282.25c-1.81,0.91-3.63,1.51-5.14,1.66c-2.57,0.15-5.14,0.15-7.55-0.15
			c-1.96-0.15-3.93-0.75-5.74-1.66c-4.83-2.87-9.52-5.29-14.05-8.76c-1.81-1.06-3.78-3.63-4.23-5.89
			c-2.72-10.88,0.45-20.55,5.89-29.92c8.61-14.96,23.12-22.66,36.87-30.37c3.32-1.81,6.35-1.66,9.52-0.15
			c3.02,1.06,5.89,1.51,9.07,2.72c5.29,1.51,10.73,2.87,16.02,5.29c3.17,0.91,5.44,3.32,5.59,6.8c0,0.45,0.3,0.75,0.45,0.91
			c4.08,4.83,0.45,8.76-1.06,13.3c-3.02,8.01-6.19,16.02-8.61,24.48c-0.91,3.17-0.3,6.19,0,9.67c0.3,2.72,1.96,2.42,3.93,2.27
			c10.73-0.75,20.85-11.18,33.09-23.72c3.32-2.42,11.94,3.17,12.24,7.4c0,1.81-1.51,3.93-2.57,5.59
			c-2.87,5.74-8.01,9.07-12.09,13.45c-0.91,0.3-1.21,0.6-1.66,1.66c-14.5,17.38-33.69,11.63-49.26,1.66
			c-2.27-1.51-4.23-4.68-6.04-7.25C482.67,275,477.68,278.93,472.85,282.25z M492.64,224.68c-4.38,2.57-8.91,4.68-12.39,8.01
			c-5.74,6.04-10.58,12.39-15.41,18.74c-16.02,21,7.25,4.53,14.5-1.81c3.48-2.87,6.95-5.44,8.92-8.76
			c3.47-5.14,5.74-10.73,8.91-16.62C495.82,224.38,493.7,224.23,492.64,224.68z"/>
		<path class="st0" d="M621.37,213.44c5.59,7.97-0.15,8.13,0.76,13.23c0.15,4.14-0.91,6.06-4.38,6.54
			c-5.29,0.64-10.42,0.64-14.05-3.99c-1.36-1.75-2.72-1.59-4.23-0.48c-14.81,10.2-31.73,31.73-27.65,51.98
			c0.91,5.1,0.6,5.9-3.93,6.22c-1.96,0-3.93,1.28-5.89,0.96c-3.02-0.48-6.04-1.28-8.46-2.71c-2.27-1.12-3.93-3.19-5.89-4.94
			c-1.36-1.28-1.66-3.03-2.27-4.78c-3.63-9.09-3.02-22.32-0.15-31.09c1.81-6.54,4.53-12.6,7.55-18.97
			c2.27-4.94,4.99-9.89,7.71-14.67c0.3-0.64,0.6-1.12,1.06-1.44c16.17-9.25,20.25,3.03,24.93,8.93
			c4.83-3.67,14.35-13.55,21.61-12.28C613.06,206.91,618.05,208.66,621.37,213.44z"/>
		<path class="st0" d="M656.73,282.25c-1.81,0.91-3.63,1.51-5.14,1.66c-2.57,0.15-5.14,0.15-7.55-0.15
			c-1.96-0.15-3.93-0.75-5.74-1.66c-4.83-2.87-9.52-5.29-14.05-8.76c-1.81-1.06-3.78-3.63-4.23-5.89
			c-2.72-10.88,0.45-20.55,5.89-29.92c8.61-14.96,23.12-22.66,36.87-30.37c3.32-1.81,6.35-1.66,9.52-0.15
			c3.02,1.06,5.89,1.51,9.07,2.72c5.29,1.51,10.73,2.87,16.02,5.29c3.17,0.91,5.44,3.32,5.59,6.8c0,0.45,0.3,0.75,0.45,0.91
			c4.08,4.83,0.45,8.76-1.06,13.3c-3.02,8.01-6.19,16.02-8.61,24.48c-0.91,3.17-0.3,6.19,0,9.67c0.3,2.72,1.96,2.42,3.93,2.27
			c10.73-0.75,20.85-11.18,33.09-23.72c3.32-2.42,11.94,3.17,12.24,7.4c0,1.81-1.51,3.93-2.57,5.59
			c-2.87,5.74-8.01,9.07-12.09,13.45c-0.91,0.3-1.21,0.6-1.66,1.66c-14.5,17.38-33.69,11.63-49.26,1.66
			c-2.27-1.51-4.23-4.68-6.04-7.25C666.55,275,661.56,278.93,656.73,282.25z M676.52,224.68c-4.38,2.57-8.91,4.68-12.39,8.01
			c-5.74,6.04-10.58,12.39-15.41,18.74c-16.02,21,7.25,4.53,14.5-1.81c3.48-2.87,6.95-5.44,8.92-8.76
			c3.47-5.14,5.74-10.73,8.91-16.62C679.69,224.38,677.58,224.23,676.52,224.68z"/>
		<path class="st0" d="M813.26,194.01c4.83-5.59,9.97,3.63,15.26,6.95c3.02,1.36,3.78,8.46,1.81,10.88
			c-12.09,13.75-30.67,26.59-48.8,33.54c-0.15,0.3-0.76,0.45-0.91,0.6c0,0.6,0,1.21,0.45,1.36c5.59,10.12,14.05,18.13,21.91,26.74
			c3.02,3.32,6.35,5.14,10.42,6.65c0.76,0.15,1.36,1.06,1.51,1.51c0.6,3.63-1.36,6.5-4.68,8.31c-2.42,1.06-4.83,2.57-7.55,3.17
			c-2.42,0.45-5.14,0-8.16-0.45c-3.17-0.6-6.8-1.06-9.52-2.72c-12.84-6.65-22.81-16.32-29.01-29.92c-0.3-0.6-0.75-1.21-1.21-2.27
			c-8.16,12.69-10.58,29.77-24.63,37.02c-3.32,0.91-8.61-0.91-10.27-3.78c-3.02-5.89-7.1-12.09-3.63-17.53
			c6.8-11.48,29.92-53.33,43.36-79.17c3.48-6.2,9.82-27.35,18.58-24.78c4.53,1.36,13.45,6.8,13.14,11.94
			c-0.15,2.42-1.06,5.59-2.12,7.71c-4.23,8.31-8.91,16.02-13.6,24.17c0.75,0.15-6.8,8.76-6.65,9.07
			C779.71,222.57,802.83,205.95,813.26,194.01z"/>
		<path class="st0" d="M818.84,252.33c4.38-6.8,8.46-13.45,12.99-19.79c2.42-3.32,5.44-6.8,8.61-9.82c0.76-1.06,3.17-1.51,4.23-1.21
			c8.61,3.02,14.05,10.58,8.61,19.64c-3.17,6.19-7.25,11.94-10.73,17.98c-4.68,8.31-8.91,16.77-9.97,26.14
			c-0.6,4.53-10.43,10.73-14.35,7.86c-5.14-3.63-8.16-8.61-7.86-16.92C810.38,268.35,814.01,260.04,818.84,252.33z M877.62,200.21
			c-1.81,2.27-3.47,4.83-5.74,6.8c-2.57,2.72-5.59,5.89-9.07,7.55c-4.53,2.12-12.69,5.29-15.26-0.45c-0.3-0.45,0.15-1.36,0.45-1.96
			c4.23-8.16,6.5-17.22,13.45-24.17c1.36-1.21,2.42-2.87,3.93-4.53c3.32-3.02,7.71-2.57,10.42,1.36c1.06,1.51,2.87,2.42,4.08,4.23
			c0.6,1.06,1.06,2.57,1.96,4.53C880.49,195.67,879.28,198.24,877.62,200.21z"/>
	</g>
</g>
</svg>
